<svg xmlns="http://www.w3.org/2000/svg" width="256" height="388" fill="none" viewBox="0 0 256 388"><g clip-path="url(#a)"><path fill="#190607" d="M0 0h256v388H0z"/><path fill="#281011" d="M281 253.5c0 90.825-68.5 109.5-153 109.5S-25 346.682-25 253.5C-25 205.472 43.5 144 128 144s153 46.668 153 109.5"/><path fill="#fff" d="M143.901 257.979q0 9.703-3.343 14.433t-10.356 4.73q-6.932 0-10.356-4.73-3.344-4.73-3.344-14.433v-75.672h-2.446q-8.97 0-13.618-3.18t-4.648-9.377q0-6.279 4.73-9.378 4.811-3.099 14.515-3.099h13.536q8.235 0 11.742 4.404 3.588 4.403 3.588 14.759zM106 82h44v38a8 8 0 0 1-8 8h-28a8 8 0 0 1-8-8z"/><path fill="#ff3423" d="M164.552 310C202.907 310 234 334.177 234 364s-31.093 54-69.448 54c-13.412 0-25.935-2.96-36.552-8.08-10.617 5.119-23.139 8.08-36.55 8.08C53.093 418 22 393.823 22 364s31.094-54 69.45-54c13.411 0 25.933 2.96 36.55 8.079 10.617-5.12 23.14-8.079 36.552-8.079"/><mask id="b" width="272" height="404" x="-8" y="-8" fill="#000" maskUnits="userSpaceOnUse"><path fill="#fff" d="M-8-8h272v404H-8z"/><path d="M256 388H0v-61.686c32.765 18.574 78.017 23.394 128 23.394s95.236-5.514 128-24.437zm0-278.708c-32.764-16.927-78.017-18.456-128-18.456S32.765 96.68 0 115.767V0h256z"/></mask><path fill="#5ac7b8" d="M256 388H0v-61.686c32.765 18.574 78.017 23.394 128 23.394s95.236-5.514 128-24.437zm0-278.708c-32.764-16.927-78.017-18.456-128-18.456S32.765 96.68 0 115.767V0h256z"/><path fill="#000" fill-opacity=".1" d="M256 388v8h8v-8zM0 388h-8v8h8zm0-61.686 3.945-6.959L-8 312.583v13.731zm256-1.043h8v-13.858l-12.001 6.931zm0-215.979-3.672 7.108L264 122.43v-13.138zM0 115.767h-8v13.918l12.027-7.006zM0 0v-8h-8v8zm256 0h8v-8h-8zm0 388v-8H0v16h256zM0 388h8v-61.686H-8V388zm0-61.686-3.945 6.96C30.777 352.958 77.89 357.708 128 357.708v-16c-49.857 0-93.248-4.889-124.055-22.353zm128 23.394v8c50.218 0 97.301-5.469 132.001-25.509L256 325.271l-4.001-6.927C221.17 336.148 177.748 341.708 128 341.708zm128-24.437h-8V388h16v-62.729zm0-215.979 3.672-7.108C224.876 84.208 177.563 82.836 128 82.836v16c50.403 0 93.595 1.686 124.328 17.564zM128 90.836v-8c-50.269 0-97.338 5.81-132.027 26.018L0 115.767l4.027 6.912C34.867 104.713 78.303 98.836 128 98.836zM0 115.767h8V0H-8v115.767zM0 0v8h256V-8H0zm256 0h-8v109.292h16V0z" mask="url(#b)"/><path fill="#190607" d="M180.181 17.025c13.737-1.796 62.108.9 62.108 26.43.907 37.301-62.417 31.365-81.626 19.065-7.879-5.045-20.611-18.186-11.517-28.428 4.954-12.567 20.396-15.676 31.035-17.067" opacity=".2"/><path fill="#fff" d="M180.181 22.289c13.737-1.796 54.39-.224 54.908 21.167.907 37.3-55.217 31.364-74.426 19.065-7.879-5.045-20.611-18.186-11.517-28.428 7.377-9.357 20.396-10.413 31.035-11.804"/><ellipse cx="186.8" cy="46.725" fill="#190607" rx="12.1" ry="8.1"/><path fill="#190607" d="M76.118 17.025c-13.738-1.796-62.108.9-62.108 26.43-.907 37.301 62.417 31.365 81.626 19.065 7.879-5.045 20.611-18.186 11.516-28.428-4.953-12.567-20.395-15.676-31.034-17.067" opacity=".2"/><path fill="#fff" d="M76.118 22.289c-13.738-1.796-54.39-.224-54.908 21.167-.907 37.3 55.217 31.364 74.426 19.065 7.879-5.045 20.611-18.186 11.516-28.428-7.376-9.357-20.395-10.413-31.034-11.804"/><ellipse cx="12.1" cy="8.1" fill="#190607" rx="12.1" ry="8.1" transform="matrix(-1 0 0 1 81.599 38.625)"/></g><defs><clipPath id="a"><path fill="#fff" d="M0 0h256v388H0z"/></clipPath></defs></svg>