<svg xmlns="http://www.w3.org/2000/svg" width="40" height="40" fill="none" viewBox="0 0 40 40"><rect width="38" height="38" x="1" y="1" fill="#fff" rx="19"/><rect width="38" height="38" x="1" y="1" stroke="#014461" stroke-width="2" rx="19"/><circle cx="20" cy="20" r="15" fill="#014461"/><path fill="#fff" d="m19.546 9.007.18-.006a12.2 12.2 0 0 1 3.178.402c.82.217 2.011.886 2.618 1.478a5.43 5.43 0 0 1 1.613 3.835c.017 2.189-1.13 3.797-2.946 4.894-.674.407-1.421.83-1.988 1.38-.864.836-.819 1.777-.805 2.894a8 8 0 0 0-.609-.012c-1.093.02-2.21-.033-3.301.008-.004-.715-.113-1.4-.03-2.115.087-.744.31-1.357.745-1.965.905-1.235 2.21-1.658 3.339-2.604.665-.571 1.046-1.162 1.089-2.059.05-1.023-.328-1.826-1.228-2.339-.44-.252-.876-.31-1.375-.343-1.758-.113-3.095.89-3.182 2.748-.804-.022-1.667-.006-2.477-.007h-.928c-.17 0-.409-.007-.574.01.012-1.503.418-2.8 1.395-3.971.63-.75 1.507-1.267 2.403-1.63s1.918-.532 2.883-.598M19.31 26.278a2.366 2.366 0 1 1 .392 4.715 2.366 2.366 0 0 1-.393-4.715"/></svg>