<svg width="32" height="14" viewBox="0 0 32 14" fill="none" xmlns="http://www.w3.org/2000/svg">
<path d="M30.4806 6.13176L20.8676 0.638635C20.0086 0.147751 19.0346 1.06914 19.477 1.95409L21.7764 6.55279C21.9172 6.83431 21.9172 7.16569 21.7764 7.44721L19.477 12.0459C19.0346 12.9309 20.0086 13.8522 20.8676 13.3614L30.4806 7.86824C31.1524 7.48435 31.1524 6.51565 30.4806 6.13176Z" fill="#014461"/>
<path d="M1.51942 6.13176L11.1324 0.638636C11.9914 0.147752 12.9654 1.06914 12.523 1.95409L10.2236 6.55279C10.0828 6.83431 10.0828 7.16569 10.2236 7.44721L12.523 12.0459C12.9654 12.9309 11.9914 13.8522 11.1324 13.3614L1.51943 7.86824C0.84761 7.48435 0.84761 6.51565 1.51942 6.13176Z" fill="#014461"/>
</svg>
