<svg width="661" height="888" viewBox="0 0 661 888" fill="none" xmlns="http://www.w3.org/2000/svg">
<g id="germany-cities">
<path id="Berlin" d="M535.05 283.73C535.05 286.584 532.8 288.898 530.025 288.898C527.25 288.898 525 286.584 525 283.73C525 280.876 527.25 278.562 530.025 278.562C532.8 278.562 535.05 280.876 535.05 283.73Z" fill="#CABDB5" stroke="black" stroke-width="2"/>
<path id="Potsdam" d="M513.05 304.73C513.05 307.584 510.8 309.898 508.025 309.898C505.25 309.898 503 307.584 503 304.73C503 301.876 505.25 299.562 508.025 299.562C510.8 299.562 513.05 301.876 513.05 304.73Z" fill="#CABDB5" stroke="black" stroke-width="2"/>
<path id="Bremen" d="M221.05 227.73C221.05 230.584 218.8 232.898 216.025 232.898C213.25 232.898 211 230.584 211 227.73C211 224.876 213.25 222.562 216.025 222.562C218.8 222.562 221.05 224.876 221.05 227.73Z" fill="#CABDB5" stroke="black" stroke-width="2"/>
<path id="Hamburg" d="M302.05 176.73C302.05 179.584 299.8 181.898 297.025 181.898C294.25 181.898 292 179.584 292 176.73C292 173.876 294.25 171.562 297.025 171.562C299.8 171.562 302.05 173.876 302.05 176.73Z" fill="#CABDB5" stroke="black" stroke-width="2"/>
<path id="Kiel" d="M307.05 89.7305C307.05 92.5845 304.8 94.8985 302.025 94.8985C299.25 94.8985 297 92.5845 297 89.7305C297 86.8765 299.25 84.5625 302.025 84.5625C304.8 84.5625 307.05 86.8765 307.05 89.7305Z" fill="#CABDB5" stroke="black" stroke-width="2"/>
<path id="Munechen" d="M425.05 775.731C425.05 778.585 422.8 780.898 420.025 780.898C417.25 780.898 415 778.585 415 775.731C415 772.877 417.25 770.562 420.025 770.562C422.8 770.562 425.05 772.877 425.05 775.731Z" fill="#CABDB5" stroke="black" stroke-width="2"/>
<path id="Stuttgart" d="M249.05 714.731C249.05 717.585 246.8 719.898 244.025 719.898C241.25 719.898 239 717.585 239 714.731C239 711.877 241.25 709.562 244.025 709.562C246.8 709.562 249.05 711.877 249.05 714.731Z" fill="#CABDB5" stroke="black" stroke-width="2"/>
<path id="Saarbruecken" d="M84.05 651.731C84.05 654.585 81.8003 656.898 79.025 656.898C76.2498 656.898 74 654.585 74 651.731C74 648.877 76.2498 646.562 79.025 646.562C81.8003 646.562 84.05 648.877 84.05 651.731Z" fill="#CABDB5" stroke="black" stroke-width="2"/>
<path id="Mainz" d="M171.05 579.731C171.05 582.585 168.8 584.898 166.025 584.898C163.25 584.898 161 582.585 161 579.731C161 576.877 163.25 574.562 166.025 574.562C168.8 574.562 171.05 576.877 171.05 579.731Z" fill="#CABDB5" stroke="black" stroke-width="2"/>
<path id="Wiesbaden" d="M185.05 561.731C185.05 564.585 182.8 566.898 180.025 566.898C177.25 566.898 175 564.585 175 561.731C175 558.877 177.25 556.562 180.025 556.562C182.8 556.562 185.05 558.877 185.05 561.731Z" fill="#CABDB5" stroke="black" stroke-width="2"/>
<path id="Dueseldorf" d="M83.05 418.73C83.05 421.584 80.8003 423.898 78.025 423.898C75.2498 423.898 73 421.584 73 418.73C73 415.876 75.2498 413.562 78.025 413.562C80.8003 413.562 83.05 415.876 83.05 418.73Z" fill="#CABDB5" stroke="black" stroke-width="2"/>
<path id="Erfurt" d="M383.05 464.73C383.05 467.584 380.8 469.898 378.025 469.898C375.25 469.898 373 467.584 373 464.73C373 461.876 375.25 459.562 378.025 459.562C380.8 459.562 383.05 461.876 383.05 464.73Z" fill="#CABDB5" stroke="black" stroke-width="2"/>
<path id="Hannover" d="M285.05 307.73C285.05 310.584 282.8 312.898 280.025 312.898C277.25 312.898 275 310.584 275 307.73C275 304.876 277.25 302.562 280.025 302.562C282.8 302.562 285.05 304.876 285.05 307.73Z" fill="#CABDB5" stroke="black" stroke-width="2"/>
<path id="Magdeburg" d="M417.05 332.73C417.05 335.584 414.8 337.898 412.025 337.898C409.25 337.898 407 335.584 407 332.73C407 329.876 409.25 327.562 412.025 327.562C414.8 327.562 417.05 329.876 417.05 332.73Z" fill="#CABDB5" stroke="black" stroke-width="2"/>
<path id="Dresden" d="M574.05 443.73C574.05 446.584 571.8 448.898 569.025 448.898C566.25 448.898 564 446.584 564 443.73C564 440.876 566.25 438.562 569.025 438.562C571.8 438.562 574.05 440.876 574.05 443.73Z" fill="#CABDB5" stroke="black" stroke-width="2"/>
<path id="Schwerin" d="M391.05 164.73C391.05 167.584 388.8 169.898 386.025 169.898C383.25 169.898 381 167.584 381 164.73C381 161.876 383.25 159.562 386.025 159.562C388.8 159.562 391.05 161.876 391.05 164.73Z" fill="#CABDB5" stroke="black" stroke-width="2"/>
</g>
</svg>
