<svg width="540" height="79" viewBox="0 0 540 79" fill="none" xmlns="http://www.w3.org/2000/svg">
<ellipse cx="38.787" cy="40.0191" rx="18.9511" ry="18.8356" fill="url(#paint0_radial_25_351)"/>
<path d="M55.4022 30.9759C55.4861 31.0345 55.5624 31.0928 55.6413 31.151C54.6753 29.4471 53.4725 27.8871 52.0682 26.517C40.1038 14.6269 48.9309 0.735922 50.4196 0.0304375C50.4239 0.024707 50.4329 0.0118135 50.4356 0.00878906C40.767 5.63674 37.487 16.0479 37.1855 21.2567C37.634 21.2258 38.0811 21.1884 38.5376 21.1884C45.7528 21.1884 52.037 25.1313 55.4022 30.9759V30.9759Z" fill="url(#paint1_radial_25_351)"/>
<path d="M52.0686 26.5171C53.4729 27.8871 54.6757 29.4472 55.6417 31.1511C55.8536 31.3093 56.0515 31.4671 56.2196 31.621C64.9452 39.6118 60.3734 50.9136 60.0324 51.719C67.1211 45.9153 71.6557 37.3319 70.2906 28.4718C65.9383 17.6902 58.5585 13.3427 52.5323 3.87661C52.228 3.39796 51.9229 2.91803 51.6256 2.41216C51.4743 2.15381 51.3329 1.8898 51.2019 1.62072C50.9515 1.14029 50.7584 0.63247 50.6264 0.107557C50.6273 0.0827066 50.6189 0.0584114 50.6027 0.0394436C50.5865 0.0204758 50.5638 0.00820642 50.539 0.00504538C50.5154 -0.00168179 50.4903 -0.00168179 50.4667 0.00504538C50.4613 0.00695554 50.4533 0.0131635 50.4475 0.0153921C50.439 0.0187348 50.4283 0.0263755 50.4193 0.03131C48.9313 0.736158 40.1041 14.6271 52.0686 26.5171V26.5171Z" fill="url(#paint2_radial_25_351)"/>
<path d="M56.2183 31.6206C56.0503 31.4667 55.8524 31.3089 55.6405 31.1507C55.5622 31.0921 55.4853 31.0339 55.4014 30.9756C53.3462 29.5408 49.6662 28.1236 46.1208 28.7364C59.9649 35.6152 56.2483 59.3031 37.0648 58.4088C35.3564 58.3395 33.6682 58.0159 32.0565 57.4488C31.6754 57.3063 31.2984 57.1531 30.926 56.9894C30.7088 56.891 30.4918 56.7915 30.2773 56.6814C30.285 56.6866 30.2956 56.6925 30.3034 56.6973C32.9797 58.512 46.1972 62.9462 60.0099 51.7681L60.0312 51.7183C60.3721 50.9138 64.944 39.6116 56.2183 31.6206V31.6206Z" fill="url(#paint3_radial_25_351)"/>
<path d="M74.1061 26.4798C72.4332 22.4806 69.0451 18.163 66.3846 16.7983C68.5499 21.0174 69.8031 25.2497 70.282 28.4083C70.282 28.4145 70.2844 28.4299 70.2895 28.4719C65.9373 17.6902 58.5574 13.3427 52.5312 3.87661C52.2269 3.39796 51.9218 2.91803 51.6246 2.41216C51.4732 2.15381 51.3319 1.8898 51.2008 1.62072C50.9505 1.14029 50.7573 0.63247 50.6254 0.107557C50.6263 0.0827066 50.6178 0.0584114 50.6017 0.0394436C50.5855 0.0204758 50.5628 0.00820642 50.5379 0.00504538C50.5143 -0.00168179 50.4893 -0.00168179 50.4657 0.00504538C50.4603 0.00695554 50.4523 0.0131635 50.4465 0.0153921C50.438 0.0187348 50.4273 0.0263755 50.4183 0.03131C50.4226 0.0255796 50.4316 0.012686 50.4343 0.00966159C40.7657 5.63762 37.4857 16.0488 37.1843 21.2576C37.6327 21.2267 38.0799 21.1893 38.5363 21.1893C45.7518 21.1893 52.036 25.1322 55.4008 30.9763C53.3456 29.5415 49.6656 28.1243 46.1202 28.7371C59.9643 35.6159 56.2477 59.3038 37.0642 58.4095C35.3558 58.3402 33.6676 58.0166 32.0559 57.4495C31.6748 57.307 31.2978 57.1538 30.9254 56.9901C30.7082 56.8917 30.4912 56.7922 30.2767 56.6821C30.2844 56.6873 30.295 56.6932 30.3028 56.698C30.1147 56.608 29.9279 56.5155 29.7423 56.4206C29.9223 56.506 30.0914 56.5995 30.2763 56.6814C25.5757 54.267 21.6944 49.7041 21.2096 44.1631C21.2096 44.1631 22.9863 37.5834 33.9312 37.5834C35.1144 37.5834 38.4971 34.3019 38.5597 33.3503C38.5454 33.0396 31.8464 30.3912 29.2349 27.8338C27.8395 26.4674 27.1769 25.8085 26.5901 25.3143C26.2717 25.047 25.9389 24.7973 25.5931 24.5662C24.7158 21.5156 24.6786 18.2869 25.4852 15.2172C21.5312 17.0065 18.4559 19.835 16.2201 22.3325H16.2024C14.6766 20.4117 14.7842 14.0754 14.8711 12.7525C14.8529 12.6705 13.7329 13.3303 13.5862 13.4298C12.2398 14.385 10.9811 15.4567 9.82478 16.6325C8.50935 17.9589 7.30748 19.392 6.23168 20.917C6.23168 20.9189 6.23056 20.9211 6.22992 20.923C6.22992 20.9209 6.23104 20.9189 6.23168 20.917C3.75668 24.4029 2.00135 28.3418 1.06712 32.506C1.0487 32.589 1.03317 32.6749 1.01523 32.7585C0.94284 33.0953 0.617082 34.8044 0.571598 35.171C0.574961 35.143 0.568074 35.1992 0.571598 35.171C0.274532 36.9371 0.0849894 38.7195 0.00400384 40.5083C0.00400384 40.5736 0 40.6382 0 40.7036C0 61.828 17.2328 78.9529 38.4894 78.9529C57.5264 78.9529 73.333 65.2176 76.4275 47.1759C76.4927 46.6862 76.5449 46.1941 76.6024 45.7001C77.3675 39.1403 76.5175 32.2455 74.1061 26.4798ZM70.2878 28.4442C70.2897 28.4578 70.2921 28.4719 70.2942 28.4855L70.2929 28.4813L70.2878 28.4442Z" fill="url(#paint4_linear_25_351)"/>
<path d="M21.2114 44.1632C21.2114 44.1632 22.988 37.5835 33.9329 37.5835C35.1162 37.5835 38.4988 34.302 38.5614 33.3504C38.6241 32.3988 31.5626 36.2717 24.1101 32.7867C16.064 29.0241 9.95898 33.3504 9.95898 33.3504C9.95898 33.3504 12.2776 39.0505 19.0773 39.0505C18.3641 45.304 21.6909 52.5967 29.7437 56.4208C29.9237 56.5063 30.0929 56.5997 30.2777 56.6817C25.5774 54.2671 21.6962 49.7042 21.2114 44.1632V44.1632Z" fill="url(#paint5_linear_25_351)"/>
<path fill-rule="evenodd" clip-rule="evenodd" d="M13.5877 13.4295C13.7344 13.3301 14.8542 12.6702 14.8725 12.7521C14.7855 14.0752 14.6781 20.4115 16.2039 22.3323H16.2217C16.4086 22.3275 21.9901 22.2278 24.7968 24.0408C25.0646 24.2131 25.3307 24.3882 25.5947 24.5661C25.9405 24.7972 26.2733 25.047 26.5916 25.3143C27.1784 25.8085 27.8409 26.4675 29.2363 27.8339C31.8477 30.3911 38.5458 33.0393 38.561 33.3504C38.5305 33.363 31.5461 36.2642 24.1099 32.7869C16.0638 29.0242 9.95851 33.3504 9.95851 33.3504C9.95851 33.3504 12.2773 39.0504 19.0771 39.0504C18.3638 45.3039 21.6905 52.5959 29.7435 56.4208C29.9291 56.5158 30.116 56.6082 30.3041 56.6981C32.9803 58.5131 46.1979 62.9473 60.0105 51.7692L60.0315 51.7193C67.1202 45.9156 71.6549 37.3321 70.2897 28.472C70.2846 28.43 70.2822 28.4146 70.2822 28.4084C69.8034 25.2498 68.5501 21.0175 66.3848 16.7985C69.0453 18.1631 72.4336 22.4806 74.1064 26.4798C76.5179 32.2454 77.3678 39.1404 76.6027 45.7002C76.5452 46.1941 76.4932 46.6864 76.428 47.176C73.3334 65.2177 57.5267 78.9532 38.4898 78.9532C17.2332 78.9532 0.000320312 61.8282 0 40.7037C1.53155e-07 40.6383 0.00391288 40.5737 0.00391493 40.5085C0.114678 38.4743 0.208136 37.5729 0.355547 36.691C0.615435 34.4737 1.05694 32.5529 1.06735 32.506C2.00158 28.3418 3.75689 24.4029 6.23186 20.917C7.30796 19.3919 8.51032 17.9587 9.82612 16.6322C10.9824 15.4565 12.2413 14.3847 13.5877 13.4295ZM70.2933 28.4816L70.2944 28.4855C70.2923 28.472 70.2899 28.4579 70.2879 28.4444L70.2933 28.4816Z" fill="url(#paint6_radial_25_351)"/>
<path fill-rule="evenodd" clip-rule="evenodd" d="M13.5877 13.4295C13.7344 13.3301 14.8542 12.6702 14.8725 12.7521C14.7855 14.0752 14.6781 20.4115 16.2039 22.3323H16.2217C16.4086 22.3275 21.9901 22.2278 24.7968 24.0408C25.0646 24.2131 25.3307 24.3882 25.5947 24.5661C25.9405 24.7972 26.2733 25.047 26.5916 25.3143C27.1784 25.8085 27.8409 26.4675 29.2363 27.8339C31.8477 30.3911 38.5458 33.0393 38.561 33.3504C38.5305 33.363 31.5461 36.2642 24.1099 32.7869C16.0638 29.0242 9.95851 33.3504 9.95851 33.3504C9.95851 33.3504 12.2773 39.0504 19.0771 39.0504C18.3638 45.3039 21.6905 52.5959 29.7435 56.4208C29.9291 56.5158 30.116 56.6082 30.3041 56.6981C32.9803 58.5131 46.1979 62.9473 60.0105 51.7692L60.0315 51.7193C67.1202 45.9156 71.6549 37.3321 70.2897 28.472C70.2846 28.43 70.2822 28.4146 70.2822 28.4084C69.8034 25.2498 68.5501 21.0175 66.3848 16.7985C69.0453 18.1631 72.4336 22.4806 74.1064 26.4798C76.5179 32.2454 77.3678 39.1404 76.6027 45.7002C76.5452 46.1941 76.4932 46.6864 76.428 47.176C73.3334 65.2177 57.5267 78.9532 38.4898 78.9532C17.2332 78.9532 0.000320312 61.8282 0 40.7037C1.53155e-07 40.6383 0.00391288 40.5737 0.00391493 40.5085C0.114678 38.4743 0.208136 37.5729 0.355547 36.691C0.615435 34.4737 1.05694 32.5529 1.06735 32.506C2.00158 28.3418 3.75689 24.4029 6.23186 20.917C7.30796 19.3919 8.51032 17.9587 9.82612 16.6322C10.9824 15.4565 12.2413 14.3847 13.5877 13.4295ZM70.2933 28.4816L70.2944 28.4855C70.2923 28.472 70.2899 28.4579 70.2879 28.4444L70.2933 28.4816Z" fill="url(#paint7_linear_25_351)"/>
<path fill-rule="evenodd" clip-rule="evenodd" d="M13.5877 13.4295C13.7344 13.3301 14.8542 12.6702 14.8725 12.7521C14.7855 14.0752 14.6781 20.4115 16.2039 22.3323H16.2217C16.4086 22.3275 21.9901 22.2278 24.7968 24.0408C25.0646 24.2131 25.3307 24.3882 25.5947 24.5661C25.9405 24.7972 26.2733 25.047 26.5916 25.3143C27.1784 25.8085 27.8409 26.4675 29.2363 27.8339C31.8477 30.3911 38.5458 33.0393 38.561 33.3504C38.5305 33.363 31.5461 36.2642 24.1099 32.7869C16.0638 29.0242 9.95851 33.3504 9.95851 33.3504C9.95851 33.3504 12.2773 39.0504 19.0771 39.0504C18.3638 45.3039 21.6905 52.5959 29.7435 56.4208C29.9291 56.5158 30.116 56.6082 30.3041 56.6981C32.9803 58.5131 46.1979 62.9473 60.0105 51.7692L60.0315 51.7193C67.1202 45.9156 71.6549 37.3321 70.2897 28.472C70.2846 28.43 70.2822 28.4146 70.2822 28.4084C69.8034 25.2498 68.5501 21.0175 66.3848 16.7985C69.0453 18.1631 72.4336 22.4806 74.1064 26.4798C76.5179 32.2454 77.3678 39.1404 76.6027 45.7002C76.5452 46.1941 76.4932 46.6864 76.428 47.176C73.3334 65.2177 57.5267 78.9532 38.4898 78.9532C17.2332 78.9532 0.000320312 61.8282 0 40.7037C1.53155e-07 40.6383 0.00391288 40.5737 0.00391493 40.5085C0.114678 38.4743 0.208136 37.5729 0.355547 36.691C0.615435 34.4737 1.05694 32.5529 1.06735 32.506C2.00158 28.3418 3.75689 24.4029 6.23186 20.917C7.30796 19.3919 8.51032 17.9587 9.82612 16.6322C10.9824 15.4565 12.2413 14.3847 13.5877 13.4295ZM70.2933 28.4816L70.2944 28.4855C70.2923 28.472 70.2899 28.4579 70.2879 28.4444L70.2933 28.4816Z" fill="white" fill-opacity="0.1" style="mix-blend-mode:overlay"/>
<path d="M24.7979 24.0414C25.066 24.2133 25.3319 24.3884 25.5956 24.5667C24.7184 21.5162 24.6811 18.2875 25.4877 15.2178C21.5338 17.0071 18.4584 19.8356 16.2227 22.3331C16.4076 22.3279 21.9905 22.228 24.7979 24.0414V24.0414Z" fill="url(#paint8_radial_25_351)"/>
<path d="M436.229 30.4033C442.943 30.4035 447.118 35.743 447.118 45.0479C447.118 54.3527 442.993 59.6922 436.229 59.6924C432.264 59.6924 429.673 57.8924 428.298 54.1924H426.818C427.188 57.5224 427.349 59.213 427.349 60.748V66.1426H421.953V30.9326H426.553V36.2178H427.979C429.459 32.3029 432.154 30.4033 436.229 30.4033ZM382.823 30.4033C391.018 30.4034 395.303 35.1632 395.303 43.9932V45.9482H375.633V46.583C375.633 52.6079 377.853 55.3076 382.823 55.3076C387.793 55.3076 389.328 52.5575 389.328 50.6025V50.3379H394.828C393.558 56.4728 389.383 59.6982 382.828 59.6982C374.633 59.6982 369.928 54.5177 369.928 45.0527L369.923 45.0479C369.923 35.5829 374.628 30.4033 382.823 30.4033ZM527.168 30.4033C535.363 30.4033 539.648 35.1632 539.648 43.9932V45.9482H519.979V46.583C519.979 52.6078 522.198 55.3076 527.168 55.3076C532.138 55.3076 533.673 52.5575 533.673 50.6025V50.3379H539.173C537.903 56.4728 533.728 59.6982 527.173 59.6982C518.978 59.6981 514.273 54.5176 514.273 45.0527L514.269 45.0479C514.269 35.5829 518.973 30.4034 527.168 30.4033ZM232.483 30.3877C236.928 30.3878 240.383 31.6732 242.848 34.248C245.353 36.788 246.604 40.3831 246.604 45.0381C246.603 49.693 245.353 53.3079 242.848 55.8828C240.378 58.4226 236.923 59.6923 232.483 59.6924C228.039 59.6924 224.568 58.4227 222.063 55.8828C219.559 53.3079 218.308 49.693 218.308 45.0381C218.308 40.3831 219.558 36.788 222.063 34.248C224.568 31.6731 228.038 30.3877 232.483 30.3877ZM179.698 30.3877C184.108 30.3877 187.333 31.5676 189.693 33.9326C192.058 36.2975 193.238 39.6426 193.238 43.9824V46.5225H173.668V47.1025C173.668 49.6772 174.143 51.5825 175.098 52.8125C176.083 54.0125 177.618 54.6133 179.698 54.6133C181.388 54.6133 182.658 54.2774 183.508 53.6074C184.388 52.9024 184.828 52.1627 184.828 51.3877V51.1777H192.548C191.738 53.9277 190.223 56.0425 187.998 57.5225C185.813 58.9673 183.044 59.6912 179.694 59.6914C175.286 59.6907 171.852 58.4221 169.383 55.8828C166.948 53.3079 165.733 49.6929 165.733 45.0381C165.733 40.3832 166.948 36.788 169.383 34.248C171.853 31.673 175.288 30.3877 179.698 30.3877ZM498.723 30.3926C506.073 30.3926 509.508 33.1932 510.568 39.6982H505.173V39.4326C505.173 37.0027 503.638 34.623 498.723 34.623C494.863 34.6232 492.644 35.9982 492.644 38.5381C492.644 40.4929 493.809 41.3928 496.979 42.1328L502.743 43.4023C508.188 44.6723 510.623 46.8927 510.623 51.0176C510.623 56.5176 506.393 59.6875 498.883 59.6875C491.374 59.6874 487.994 56.8889 486.934 50.3867L492.378 50.333V50.6475C492.378 53.0774 493.913 55.4081 498.883 55.4082C502.848 55.4082 505.173 54.0329 505.173 51.4932C505.173 49.5882 503.958 48.6925 500.733 47.8975L494.918 46.6279C489.523 45.4129 487.198 43.1377 487.198 39.0127C487.198 33.5129 491.373 30.3927 498.723 30.3926ZM137.229 59.168H129.663V30.9229H137.229V59.168ZM164.098 36.3174H156.588C154.898 36.3174 153.643 36.7931 152.833 37.748C152.023 38.6981 151.618 40.2879 151.618 42.5078V59.168H144.108V30.9229H151.033V36.0029H151.828C152.498 34.1679 153.468 32.8127 154.738 31.9277C156.043 31.0128 157.698 30.5527 159.708 30.5527H164.098V36.3174ZM262.053 40.9727H262.633L269.033 30.9229H276.648L267.553 44.623L277.128 59.168H269.403L262.473 48.2725H261.894L254.963 59.168H247.348L256.923 44.623H256.918L247.823 30.9229H255.653L262.053 40.9727ZM317.208 27.2832H298.648V38.333H313.188V42.7227H298.648V54.5674H317.418V59.168H293.099V22.6826H317.208V27.2832ZM336.343 30.4033C342.213 30.4033 345.278 33.9427 345.278 40.7676V59.168H339.883V41.8281C339.883 36.9132 338.033 34.7432 333.908 34.7432C329.783 34.7432 327.883 36.9131 327.883 41.8281V59.168H322.488V30.9326H327.093V35.9023H328.518C329.838 32.1476 332.323 30.4034 336.343 30.4033ZM417.823 35.0078H411.318C407.143 35.0078 405.293 37.1781 405.293 42.0381V59.168H399.898V30.9326H404.503V36.0625H405.928C407.248 32.3077 409.523 30.6182 413.488 30.6182H417.823V35.0078ZM469.323 35.0078H462.818C458.643 35.0078 456.793 37.1781 456.793 42.0381V59.168H451.398V30.9326H456.003V36.0625H457.428C458.748 32.3077 461.023 30.6182 464.988 30.6182H469.323V35.0078ZM482.278 59.168H476.883V35.0029H472.868V30.9326H482.278V59.168ZM216.618 24.8926H208.104V30.9229H216.618V35.8926H208.104V59.1631H200.538V35.8926H195.723V30.9229H200.538V24.4678C200.538 23.0228 200.928 21.9127 201.703 21.1377C202.513 20.3278 203.678 19.9229 205.193 19.9229H216.618V24.8926ZM359.348 30.9326H366.803V35.0029H359.348V55.0928H366.803V59.1631H357.498C355.173 59.1631 353.958 57.8924 353.958 55.5674H353.953V35.0029H348.508V30.9326H353.953V24.6426H359.348V30.9326ZM124.108 25.8926H105.438V37.5283H119.773V43.5029H105.438V59.1582H97.6631V19.918H124.108V25.8926ZM434.378 34.7383C429.518 34.7384 427.349 37.433 427.349 43.4629V46.6328C427.349 52.6077 429.568 55.3027 434.378 55.3027C439.188 55.3027 441.408 52.6078 441.408 46.6328V43.4629C441.408 37.4379 439.238 34.7383 434.378 34.7383ZM232.483 35.4727C230.368 35.4727 228.798 36.0882 227.778 37.3232C226.753 38.5232 226.243 40.4077 226.243 42.9824V47.1074C226.243 49.6823 226.753 51.5874 227.778 52.8174C228.803 54.0174 230.368 54.6182 232.483 54.6182C234.598 54.6181 236.148 54.0173 237.138 52.8174C238.163 51.5824 238.673 49.6774 238.673 47.1074V42.9824C238.673 40.4077 238.163 38.5232 237.138 37.3232C236.153 36.0883 234.598 35.4727 232.483 35.4727ZM382.823 34.6328C378.168 34.6328 375.898 37.0127 375.633 42.3525H389.963C389.698 37.0128 387.478 34.6329 382.823 34.6328ZM527.168 34.6328C522.513 34.6329 520.244 37.0128 519.979 42.3525H534.309C534.044 37.0127 531.823 34.6328 527.168 34.6328ZM179.703 35.3125C177.768 35.3125 176.298 35.8427 175.313 36.8975C174.363 37.9224 173.813 39.5428 173.673 41.7627H185.729C185.589 39.5428 185.023 37.9174 184.038 36.8975C183.088 35.8376 181.638 35.3125 179.703 35.3125ZM482.548 27.708H476.413V22.6826H482.548V27.708ZM137.548 25.8926H129.348V19.918H137.548V25.8926Z" fill="white"/>
<defs>
<radialGradient id="paint0_radial_25_351" cx="0" cy="0" r="1" gradientTransform="matrix(28.2444 -8.15 8.2 28.0722 30.6024 42.5613)" gradientUnits="userSpaceOnUse">
<stop offset="0.1875" stop-color="#1F3059"/>
<stop offset="0.576923" stop-color="#094573"/>
<stop offset="1" stop-color="#1D89E3"/>
</radialGradient>
<radialGradient id="paint1_radial_25_351" cx="0" cy="0" r="1" gradientUnits="userSpaceOnUse" gradientTransform="translate(46.0443 -3.72828) scale(25.8381 43.5991)">
<stop offset="0.13" stop-color="#FFF44F"/>
<stop offset="0.53" stop-color="#FF980E"/>
</radialGradient>
<radialGradient id="paint2_radial_25_351" cx="0" cy="0" r="1" gradientTransform="matrix(8.98518 39.9345 -180.508 8.86256 12.5359 23.8386)" gradientUnits="userSpaceOnUse">
<stop stop-color="#FFF44F"/>
<stop offset="0.3" stop-color="#FF980E"/>
<stop offset="0.57" stop-color="#FF3647"/>
<stop offset="0.74" stop-color="#E31587"/>
</radialGradient>
<radialGradient id="paint3_radial_25_351" cx="0" cy="0" r="1" gradientUnits="userSpaceOnUse" gradientTransform="translate(36.1842 15.6201) scale(74.5076 72.7524)">
<stop offset="0.14" stop-color="#FFF44F"/>
<stop offset="0.3125" stop-color="#FF980E"/>
<stop offset="0.66" stop-color="#FF3647"/>
<stop offset="0.9" stop-color="#E31587"/>
</radialGradient>
<linearGradient id="paint4_linear_25_351" x1="61.5" y1="11.0534" x2="12.4085" y2="65.0205" gradientUnits="userSpaceOnUse">
<stop offset="0.115385" stop-color="#FFF44F" stop-opacity="0.8"/>
<stop offset="0.376902" stop-color="#FFF44F" stop-opacity="0.27"/>
<stop offset="0.650341" stop-color="#FFF44F" stop-opacity="0.52"/>
</linearGradient>
<linearGradient id="paint5_linear_25_351" x1="41.9002" y1="71.5388" x2="35.4182" y2="28.7847" gradientUnits="userSpaceOnUse">
<stop offset="0.0127967" stop-color="#004C7F"/>
<stop offset="0.91" stop-color="#61B4FF"/>
</linearGradient>
<radialGradient id="paint6_radial_25_351" cx="0" cy="0" r="1" gradientTransform="matrix(6.8623 48.4874 -56.2995 7.83288 31.5753 30.4658)" gradientUnits="userSpaceOnUse">
<stop offset="0.152442" stop-color="#228CFF"/>
<stop offset="0.856353" stop-color="#004572"/>
<stop offset="1" stop-color="#106CCD"/>
</radialGradient>
<linearGradient id="paint7_linear_25_351" x1="35.0064" y1="62.571" x2="84.0945" y2="10.061" gradientUnits="userSpaceOnUse">
<stop offset="0.308911" stop-color="#1C7EE1" stop-opacity="0"/>
<stop offset="1" stop-color="#1A7CE0"/>
</linearGradient>
<radialGradient id="paint8_radial_25_351" cx="0" cy="0" r="1" gradientTransform="matrix(-10.4051 45.9285 -46.3745 -10.3784 35.9059 5.86883)" gradientUnits="userSpaceOnUse">
<stop offset="0.1" stop-color="#2598FF"/>
<stop offset="0.951923" stop-color="#004C7F"/>
</radialGradient>
</defs>
</svg>
