<svg width="604" height="1080" viewBox="0 0 604 1080" fill="none" xmlns="http://www.w3.org/2000/svg">
<g clip-path="url(#clip0_22_346)">
<path d="M1375.22 1605.92C1222.65 1597.09 1106.08 1567.03 1029.25 1541.62C962.787 1519.67 923.779 1500.49 886.634 1470.9C861.449 1450.82 797.591 1394.49 766.556 1303.4C723.935 1178.37 767.115 1059.08 811.599 938.626C839.505 863.071 845.503 873.167 871.657 797.165C902.729 706.856 932.535 617.181 918.899 504.816C909.92 430.826 885.815 377.065 868.937 339.511C822.553 236.274 762.458 172.38 747.853 157.254C700.053 107.666 651.284 74.0987 612.649 51.894C596.293 99.4328 555.981 160.682 501.028 234.039C404.831 362.498 340.042 405.603 254.537 528.996C217.094 583.054 175.181 646.539 144.109 738.747C131.814 775.184 84.9077 924.246 119.705 1115.15C161.247 1343.08 292.427 1483.24 318.209 1510.02C342.873 1535.62 458.555 1651.97 653.482 1711.17C820.541 1761.91 958.316 1744.14 1019.94 1735.5C1185.84 1712.25 1307.93 1648.02 1375.18 1605.92H1375.22Z" fill="url(#paint0_radial_22_346)"/>
<path d="M1375.22 1605.92C1342.62 1607.89 1294.22 1609.98 1235.66 1609.05C1024.71 1605.7 669.391 1600.07 478.599 1379.74C452.892 1350.05 387.544 1272.63 366.009 1153.56C352.634 1079.6 361.092 1016.98 369.735 977.559C396.634 898.502 430.426 846.902 457.214 813.818C474.687 792.247 538.024 718.331 568.313 684.912C570.437 682.603 576.92 675.487 585.191 665.502C598.938 648.96 608.96 634.878 617.12 623.44C693.943 515.695 711.528 431.794 711.528 431.794C711.528 431.794 743.308 293.463 683.995 161.054C667.528 124.245 645.025 92.2797 645.025 92.2797C632.991 75.0673 621.441 61.5434 612.649 51.894C596.293 99.4328 555.981 160.682 501.028 234.039C404.831 362.498 340.042 405.603 254.537 528.996C217.094 583.054 175.181 646.539 144.109 738.747C131.814 775.184 84.9077 924.246 119.705 1115.15C161.247 1343.08 292.427 1483.24 318.209 1510.02C342.873 1535.62 458.555 1651.97 653.482 1711.17C820.541 1761.91 958.316 1744.14 1019.94 1735.5C1185.84 1712.25 1307.93 1648.02 1375.18 1605.92H1375.22Z" fill="url(#paint1_radial_22_346)"/>
<path d="M151.933 716.878C154.578 709.799 157.335 702.87 160.092 696.089C157.335 702.87 154.578 709.762 151.933 716.878ZM151.933 716.878C149.287 723.956 146.679 731.259 144.146 738.71C146.679 731.221 149.25 723.956 151.933 716.878ZM320.817 1512.67C319.886 1511.7 318.992 1510.81 318.247 1510.02C315.825 1507.53 312.472 1503.99 308.373 1499.52C312.472 1503.99 315.825 1507.49 318.247 1510.02C319.029 1510.81 319.886 1511.7 320.817 1512.67ZM457.251 813.781C474.725 792.21 538.061 718.294 568.351 684.875C570.474 682.565 576.957 675.449 585.228 665.464C598.976 648.923 608.998 634.84 617.157 623.402C693.98 515.658 711.565 431.757 711.565 431.757C711.565 431.757 743.345 293.425 684.033 161.017C667.565 124.208 645.062 92.2421 645.062 92.2421C632.954 75.0297 621.441 61.5058 612.649 51.8564C651.284 74.0611 700.016 107.629 747.853 157.217C762.458 172.343 822.553 236.237 868.938 339.474C885.815 377.028 909.92 430.788 918.899 504.779C932.535 617.18 902.729 706.856 871.657 797.127C845.503 873.13 839.505 862.996 811.6 938.589C767.115 1059.04 723.935 1178.33 766.556 1303.36C797.591 1394.42 861.449 1450.79 886.634 1470.87C923.742 1500.45 962.75 1519.64 1029.25 1541.58C1106.08 1566.95 1222.65 1597.02 1375.22 1605.88C1342.62 1607.86 1294.22 1609.94 1235.66 1609.01C1024.71 1605.66 669.391 1600.03 478.599 1379.7C452.892 1350.01 387.544 1272.59 366.01 1153.52C352.634 1079.57 361.092 1016.94 369.735 977.521C396.635 898.464 430.426 846.864 457.214 813.781H457.251Z" fill="url(#paint2_radial_22_346)"/>
<path d="M1375.22 1605.92C1222.65 1597.09 1106.08 1567.03 1029.25 1541.62C962.787 1519.67 923.779 1500.49 886.634 1470.9C861.449 1450.82 797.591 1394.49 766.556 1303.4C723.935 1178.37 767.115 1059.08 811.599 938.626C839.505 863.071 845.503 873.167 871.657 797.165C902.729 706.856 932.535 617.181 918.899 504.816C909.92 430.826 885.815 377.065 868.937 339.511C822.553 236.274 762.458 172.38 747.853 157.254C700.053 107.666 651.284 74.0987 612.649 51.894C596.293 99.4328 555.981 160.682 501.028 234.039C404.831 362.498 340.042 405.603 254.537 528.996C217.094 583.054 175.181 646.539 144.109 738.747C131.814 775.184 84.9077 924.246 119.705 1115.15C161.247 1343.08 292.427 1483.24 318.209 1510.02C342.873 1535.62 458.555 1651.97 653.482 1711.17C820.541 1761.91 958.316 1744.14 1019.94 1735.5C1185.84 1712.25 1307.93 1648.02 1375.18 1605.92H1375.22Z" fill="url(#paint3_linear_22_346)" fill-opacity="0.76"/>
<path d="M1773.72 869.74C1781.43 909.716 1786.38 950.623 1788.21 992.275C1788.21 993.803 1788.32 995.293 1788.32 996.82C1788.32 1487.3 1387.44 1884.89 892.968 1884.89C450.135 1884.89 82.4119 1565.98 10.4319 1147.11C8.90442 1135.75 7.71216 1124.31 6.37097 1112.84C-11.4377 960.533 8.34558 800.444 64.4541 666.582C103.387 573.74 182.185 473.484 244.069 441.816C193.698 539.763 164.526 638.044 153.386 711.364C153.386 711.141 153.349 711.551 153.237 712.184C153.2 712.482 153.125 712.817 153.088 713.153C68.5896 940.34 114.639 1171.37 180.956 1312.53C283.561 1530.92 531.988 1754.8 920.799 1743.88C1097.77 1738.92 1265.87 1681.14 1406.33 1585.69L1414.34 1580.18C1498.28 1520.08 1605.88 1423.96 1687.06 1280.75C1716.6 1228.67 1757.99 1154.08 1774.65 1046.3C1783.11 991.642 1782.88 943.544 1779.68 904.537L1773.72 869.74Z" fill="url(#paint4_radial_22_346)"/>
<path d="M1773.72 869.74C1781.43 909.716 1786.38 950.623 1788.21 992.275C1788.21 993.803 1788.32 995.293 1788.32 996.82C1788.32 1487.3 1387.44 1884.89 892.968 1884.89C450.135 1884.89 82.4119 1565.98 10.4319 1147.11C8.90442 1135.75 7.71216 1124.31 6.37097 1112.84C-11.4377 960.533 8.34558 800.444 64.4541 666.582C103.387 573.74 182.185 473.484 244.069 441.816C193.698 539.763 164.526 638.044 153.386 711.364C153.386 711.141 153.349 711.551 153.237 712.184C153.2 712.482 153.125 712.817 153.088 713.153C68.5896 940.34 114.639 1171.37 180.956 1312.53C283.561 1530.92 531.988 1754.8 920.799 1743.88C1097.77 1738.92 1265.87 1681.14 1406.33 1585.69L1414.34 1580.18C1498.28 1520.08 1605.88 1423.96 1687.06 1280.75C1716.6 1228.67 1757.99 1154.08 1774.65 1046.3C1783.11 991.642 1782.88 943.544 1779.68 904.537L1773.72 869.74Z" fill="url(#paint5_radial_22_346)"/>
<path d="M1773.72 869.74C1781.43 909.716 1786.38 950.623 1788.21 992.275C1788.21 993.803 1788.32 995.293 1788.32 996.82C1788.32 1487.3 1387.44 1884.89 892.968 1884.89C450.135 1884.89 82.4119 1565.98 10.4319 1147.11C8.90442 1135.75 7.71216 1124.31 6.37097 1112.84C-11.4377 960.533 8.34558 800.444 64.4541 666.582C103.387 573.74 182.185 473.484 244.069 441.816C193.698 539.763 164.526 638.044 153.386 711.364C153.386 711.141 153.349 711.551 153.237 712.184C153.2 712.482 153.125 712.817 153.088 713.153C68.5896 940.34 114.639 1171.37 180.956 1312.53C283.561 1530.92 531.988 1754.8 920.799 1743.88C1097.77 1738.92 1265.87 1681.14 1406.33 1585.69L1414.34 1580.18C1498.28 1520.08 1605.88 1423.96 1687.06 1280.75C1716.6 1228.67 1757.99 1154.08 1774.65 1046.3C1783.11 991.642 1782.88 943.544 1779.68 904.537L1773.72 869.74Z" fill="url(#paint6_linear_22_346)" fill-opacity="0.68"/>
<path d="M1413.41 1580.81C1271.53 1679.17 1100.75 1738.81 920.761 1743.88C531.95 1754.8 283.522 1530.92 180.917 1312.53C114.6 1171.36 68.5884 940.34 153.049 713.152C153.049 713.152 153.049 713.078 153.049 713.04C153.087 712.742 153.124 712.444 153.161 712.184C153.236 711.513 153.31 711.14 153.31 711.364C153.31 711.513 153.273 711.848 153.124 712.854C121.381 918.582 226.855 1117.87 391.753 1252.62C392.051 1253.33 392.237 1253.78 392.237 1253.78C713.576 1513.3 1021.02 1410.36 1083.27 1368.23C1087.63 1366.18 1091.96 1364.02 1096.31 1361.78C1283.64 1272.96 1361.02 1103.67 1344.44 958.484C1502.64 958.484 1556.55 826.15 1556.55 826.15C1556.55 826.15 1414.52 725.707 1227.35 813.073C1132.01 926.369 1096.31 713.152 1108.09 698.063C1140.54 666.321 1155.96 651.046 1169.6 639.571C1177.01 633.35 1183.98 628.171 1192.77 622.21C1198.1 618.596 1204.06 614.722 1211.33 610.027C1276.64 567.928 1406.51 570.238 1410.8 570.35C1410.87 570.35 1411.21 570.35 1411.21 570.35C1446.71 525.754 1444.22 378.63 1442.17 347.931C1473.76 367.378 1519.81 399.083 1567.69 446.287C1717.23 593.523 1757.55 766.354 1768.8 826.821C1776.32 867.206 1790.22 945.63 1774.65 1046.26C1757.99 1154.04 1716.6 1228.63 1687.06 1280.71C1605.84 1423.92 1498.24 1520.04 1414.34 1580.14L1413.44 1580.81H1413.41Z" fill="url(#paint7_radial_22_346)"/>
<path d="M1413.41 1580.81C1271.53 1679.17 1100.75 1738.81 920.761 1743.88C531.95 1754.8 283.522 1530.92 180.917 1312.53C114.6 1171.36 68.5884 940.34 153.049 713.152C153.049 713.152 153.049 713.078 153.049 713.04C153.087 712.742 153.124 712.444 153.161 712.184C153.236 711.513 153.31 711.14 153.31 711.364C153.31 711.513 153.273 711.848 153.124 712.854C121.381 918.582 226.855 1117.87 391.753 1252.62C392.051 1253.33 392.237 1253.78 392.237 1253.78C713.576 1513.3 1021.02 1410.36 1083.27 1368.23C1087.63 1366.18 1091.96 1364.02 1096.31 1361.78C1283.64 1272.96 1361.02 1103.67 1344.44 958.484C1502.64 958.484 1556.55 826.15 1556.55 826.15C1556.55 826.15 1414.52 725.707 1227.35 813.073C1169.6 826.15 1108.09 767.211 1108.09 698.063C1140.54 666.321 1155.96 651.046 1169.6 639.571C1177.01 633.35 1183.98 628.171 1192.77 622.21C1198.1 618.596 1204.06 614.722 1211.33 610.027C1276.64 567.928 1406.51 570.238 1410.8 570.35C1410.87 570.35 1411.21 570.35 1411.21 570.35C1446.71 525.754 1444.22 378.63 1442.17 347.931C1473.76 367.378 1519.81 399.083 1567.69 446.287C1717.23 593.523 1757.55 766.354 1768.8 826.821C1776.32 867.206 1790.22 945.63 1774.65 1046.26C1757.99 1154.04 1716.6 1228.63 1687.06 1280.71C1605.84 1423.92 1498.24 1520.04 1414.34 1580.14L1413.44 1580.81H1413.41Z" fill="url(#paint8_linear_22_346)"/>
<path d="M480.538 785.951C484.45 782.374 489.032 778.723 493.987 775.035C495.813 773.693 497.601 772.315 499.538 770.974C547.339 737.667 632.955 704.77 715.441 718.964C393.394 878.681 479.867 1428.66 926.128 1407.9C964.949 1406.12 1004.37 1399.3 1042.63 1385.62C1051.38 1382.38 1060.14 1378.81 1068.93 1374.97C1074 1372.7 1079.03 1370.39 1084.02 1367.82C1083.84 1367.93 1083.61 1368.08 1083.43 1368.19C1021.17 1410.33 713.69 1513.26 392.388 1253.74C392.388 1253.74 392.202 1253.29 391.904 1252.58C383.968 1233.88 277.638 971.486 480.612 785.951H480.538Z" fill="url(#paint9_radial_22_346)"/>
<path d="M480.538 785.951C484.45 782.374 489.032 778.723 493.987 775.035C495.813 773.693 497.601 772.315 499.538 770.974C547.339 737.667 632.955 704.77 715.441 718.964C393.394 878.681 479.867 1428.66 926.128 1407.9C964.949 1406.12 1004.37 1399.3 1042.63 1385.62C1051.38 1382.38 1060.14 1378.81 1068.93 1374.97C1074 1372.7 1079.03 1370.39 1084.02 1367.82C1083.84 1367.93 1083.61 1368.08 1083.43 1368.19C1021.17 1410.33 713.69 1513.26 392.388 1253.74C392.388 1253.74 392.202 1253.29 391.904 1252.58C383.968 1233.88 277.638 971.486 480.612 785.951H480.538Z" fill="url(#paint10_linear_22_346)"/>
</g>
<defs>
<radialGradient id="paint0_radial_22_346" cx="0" cy="0" r="1" gradientUnits="userSpaceOnUse" gradientTransform="translate(429.532 -57.527) rotate(180) scale(2711.24 2711.2)">
<stop offset="0.05" stop-color="#FFF44F"/>
<stop offset="0.11" stop-color="#FFE846"/>
<stop offset="0.22" stop-color="#FFC830"/>
<stop offset="0.36" stop-color="#FF980E"/>
<stop offset="0.39" stop-color="#FF8A15"/>
<stop offset="0.46" stop-color="#FF672A"/>
<stop offset="0.53" stop-color="#FF3647"/>
<stop offset="0.7" stop-color="#E31587"/>
</radialGradient>
<radialGradient id="paint1_radial_22_346" cx="0" cy="0" r="1" gradientTransform="matrix(-244.255 1699.54 1121.97 159.427 718.755 83.4573)" gradientUnits="userSpaceOnUse">
<stop stop-color="#FFF44F"/>
<stop offset="0.06" stop-color="#FFE846"/>
<stop offset="0.17" stop-color="#FFC830"/>
<stop offset="0.3" stop-color="#FF980E"/>
<stop offset="0.36" stop-color="#FF8A15"/>
<stop offset="0.45" stop-color="#FF672A"/>
<stop offset="0.57" stop-color="#FF3647"/>
<stop offset="0.74" stop-color="#E31587"/>
</radialGradient>
<radialGradient id="paint2_radial_22_346" cx="0" cy="0" r="1" gradientUnits="userSpaceOnUse" gradientTransform="translate(591.114 -263.852) rotate(180) scale(1611.76 1611.74)">
<stop offset="0.13" stop-color="#FFF44F"/>
<stop offset="0.25" stop-color="#FFDB3D"/>
<stop offset="0.5" stop-color="#FF9D11"/>
<stop offset="0.52" stop-color="#FF980E" stop-opacity="0.99"/>
<stop offset="0.6" stop-color="#FF980E" stop-opacity="0.73"/>
<stop offset="0.68" stop-color="#FF980E" stop-opacity="0.51"/>
<stop offset="0.75" stop-color="#FF980E" stop-opacity="0.33"/>
<stop offset="0.83" stop-color="#FF980E" stop-opacity="0.18"/>
<stop offset="0.89" stop-color="#FF980E" stop-opacity="0.08"/>
<stop offset="0.95" stop-color="#FF980E" stop-opacity="0.02"/>
<stop offset="1" stop-color="#FF980E" stop-opacity="0"/>
</radialGradient>
<linearGradient id="paint3_linear_22_346" x1="111.77" y1="412.347" x2="1378.18" y2="1678.78" gradientUnits="userSpaceOnUse">
<stop offset="0.17" stop-color="#FFF44F" stop-opacity="0.8"/>
<stop offset="0.27" stop-color="#FFF44F" stop-opacity="0.63"/>
<stop offset="0.49" stop-color="#FFF44F" stop-opacity="0.22"/>
<stop offset="0.6" stop-color="#FFF44F" stop-opacity="0"/>
</linearGradient>
<radialGradient id="paint4_radial_22_346" cx="0" cy="0" r="1" gradientUnits="userSpaceOnUse" gradientTransform="translate(262.772 255.424) rotate(180) scale(1853.07 1853.04)">
<stop offset="0.13" stop-color="#FFBD4F"/>
<stop offset="0.19" stop-color="#FFAB30"/>
<stop offset="0.25" stop-color="#FF9D17"/>
<stop offset="0.28" stop-color="#FF980E"/>
<stop offset="0.4" stop-color="#FF553B"/>
<stop offset="0.47" stop-color="#FF3750"/>
<stop offset="0.71" stop-color="#F5156C"/>
<stop offset="0.78" stop-color="#EB0877"/>
<stop offset="0.86" stop-color="#E50080"/>
</radialGradient>
<radialGradient id="paint5_radial_22_346" cx="0" cy="0" r="1" gradientUnits="userSpaceOnUse" gradientTransform="translate(939.912 1012.99) rotate(180) scale(1853.07 1853.04)">
<stop offset="0.3" stop-color="#960E18"/>
<stop offset="0.35" stop-color="#B11826" stop-opacity="0.74"/>
<stop offset="0.43" stop-color="#DB283C" stop-opacity="0.34"/>
<stop offset="0.5" stop-color="#F5334A" stop-opacity="0.09"/>
<stop offset="0.53" stop-color="#FF3750" stop-opacity="0"/>
</radialGradient>
<linearGradient id="paint6_linear_22_346" x1="155.025" y1="385.522" x2="1409.07" y2="1639.58" gradientUnits="userSpaceOnUse">
<stop offset="0.17" stop-color="#FFF44F" stop-opacity="0.8"/>
<stop offset="0.27" stop-color="#FFF44F" stop-opacity="0.63"/>
<stop offset="0.49" stop-color="#FFF44F" stop-opacity="0.22"/>
<stop offset="0.6" stop-color="#FFF44F" stop-opacity="0"/>
</linearGradient>
<radialGradient id="paint7_radial_22_346" cx="0" cy="0" r="1" gradientUnits="userSpaceOnUse" gradientTransform="translate(463.845 -222.796) rotate(180) scale(2707.78 2707.74)">
<stop offset="0.11" stop-color="#FFF44F"/>
<stop offset="0.46" stop-color="#FF980E"/>
<stop offset="0.62" stop-color="#FF5634"/>
<stop offset="0.72" stop-color="#FF3647"/>
<stop offset="0.9" stop-color="#E31587"/>
</radialGradient>
<linearGradient id="paint8_linear_22_346" x1="357.738" y1="392.899" x2="1444.91" y2="1480.09" gradientUnits="userSpaceOnUse">
<stop offset="0.17" stop-color="#FFF44F" stop-opacity="0.8"/>
<stop offset="0.27" stop-color="#FFF44F" stop-opacity="0.63"/>
<stop offset="0.49" stop-color="#FFF44F" stop-opacity="0.22"/>
<stop offset="0.6" stop-color="#FFF44F" stop-opacity="0"/>
</linearGradient>
<radialGradient id="paint9_radial_22_346" cx="0" cy="0" r="1" gradientUnits="userSpaceOnUse" gradientTransform="translate(978.287 414.656) rotate(180) scale(1690.78 1690.76)">
<stop offset="0.14" stop-color="#FFF44F"/>
<stop offset="0.48" stop-color="#FF980E"/>
<stop offset="0.59" stop-color="#FF5634"/>
<stop offset="0.66" stop-color="#FF3647"/>
<stop offset="0.9" stop-color="#E31587"/>
</radialGradient>
<linearGradient id="paint10_linear_22_346" x1="189.749" y1="622.21" x2="1162.95" y2="1595.43" gradientUnits="userSpaceOnUse">
<stop stop-color="#FFF44F" stop-opacity="0.8"/>
<stop offset="0.14" stop-color="#FFF44F" stop-opacity="0.63"/>
<stop offset="0.45" stop-color="#FFF44F" stop-opacity="0.22"/>
<stop offset="0.6" stop-color="#FFF44F" stop-opacity="0"/>
</linearGradient>
<clipPath id="clip0_22_346">
<rect width="604" height="1080" fill="white" transform="matrix(-1 0 0 1 604 0)"/>
</clipPath>
</defs>
</svg>
