<svg width="238" height="277" viewBox="0 0 238 277" fill="none" xmlns="http://www.w3.org/2000/svg">
<path d="M109.414 197.464C85.7785 182.011 64.6086 184.803 44.1658 156.88C38.1444 148.655 34.4465 140.731 26.407 133.453C20.1234 127.765 16.5033 121.944 9.41964 116.444C4.171 112.37 -0.885931 105.055 3.26565 98.5349C10.2699 87.5343 26.668 96.5458 34.1561 102.271C40.8569 107.394 45.3437 112.447 50.2657 119.173C52.5183 122.251 55.5332 126.012 57.9888 128.199C59.741 129.759 61.2085 130.517 61.9113 129.654C62.3237 129.147 62.5118 128.124 62.3865 126.429C62.2193 124.166 61.5348 121.273 60.9749 119.15C59.6951 114.298 57.8394 109.079 56.7002 105.682C55.1243 100.983 53.4939 96.7965 51.7899 92.7563C40.6122 94.197 37.7277 80.5869 42.7235 72.452C38.3856 62.6106 34.164 52.7128 28.7745 43.3844C23.8461 34.8544 17.3704 25.6542 15.8122 15.7987C14.4513 7.19102 20.5293 -3.7722 29.513 2.00855C33.5215 4.58796 36.6071 9.72095 39.1499 13.7299C44.2738 21.8084 49.8445 29.3392 55.5554 36.9879C58.4601 40.8783 61.6277 44.8751 64.287 48.9256C72.068 41.5214 82.5153 39.7752 88.2438 50.9313C100.788 46.0649 106.995 57.3086 111.101 67.334C118.18 65.4892 124.747 68.0126 128.732 74.1577C134.299 82.7423 139.46 92.6244 143.931 101.835C149.335 112.965 148.042 129.948 152.647 143.605C154.024 147.689 159.77 162.395 163.62 163.36C161.242 164.953 200.088 194.71 228.97 232.257C226.887 233.572 179.769 267.412 177.639 268.753C137.598 218.997 111.147 196.507 109.414 197.464Z" fill="black"/>
<circle cx="22" cy="10" r="2" fill="#D9D9D9"/>
<path fill-rule="evenodd" clip-rule="evenodd" d="M15.8124 15.7989C14.4515 7.19123 20.5288 -3.7719 29.5126 2.00883C33.521 4.58816 36.6066 9.72068 39.1493 13.7295C44.2733 21.8081 49.8446 29.3395 55.5555 36.9883C58.4601 40.8785 61.6277 44.8755 64.287 48.9258C72.0679 41.5216 82.5155 39.7756 88.244 50.9317C100.788 46.0655 106.995 57.3087 111.1 67.334C118.179 65.4893 124.747 68.0126 128.731 74.1573C134.298 82.7419 139.46 92.6242 143.932 101.835C149.335 112.965 148.041 129.948 152.646 143.605C154.523 149.171 157.352 155.637 161.322 160.011C169.036 168.514 177.926 176.225 186.225 184.314C196.868 194.69 210.629 208.947 229.951 232.014C230.305 232.437 230.249 233.067 229.826 233.422C229.403 233.776 228.773 233.721 228.418 233.298C209.14 210.284 195.424 196.076 184.828 185.747C174.265 175.45 166.691 168.905 159.842 161.355C155.705 156.795 152.7 150.062 150.746 144.273C146.195 130.791 147.319 113.433 142.116 102.716C137.681 93.58 132.56 83.7686 127.039 75.2539C123.594 69.9419 118.042 67.724 111.891 69.209C114.95 76.1805 118.957 82.633 122.479 89.3565C123.095 90.5302 121.31 91.4667 120.694 90.293C116.874 83.0005 112.434 75.9645 109.327 68.3184C105.746 59.5034 100.374 48.4941 89.1122 52.7579L89.3397 53.2491C93.9988 63.2994 98.7695 73.5885 104.361 83.1358C105.029 84.2781 103.29 85.2947 102.622 84.1524C96.9086 74.3974 92.0832 63.944 87.3143 53.6768C82.0132 42.2625 73.4139 42.7983 65.3925 50.6592C70.7324 59.2439 79.222 76.7719 85.9667 82.1768C86.9978 83.0045 85.7382 84.5743 84.7069 83.7471C77.1742 77.7108 68.7526 59.4368 62.6913 50.17C60.0314 46.1031 56.8526 42.0904 53.9393 38.1885C48.1982 30.4993 42.6005 22.9324 37.4491 14.8106C35.1072 11.1183 32.0928 6.06126 28.4237 3.70023C20.9901 -1.08307 16.7464 8.79066 17.8056 15.4893C19.3063 24.9812 25.7599 34.135 30.5214 42.376C36.1451 52.1097 40.4961 62.4436 45.0399 72.7012C49.803 83.4538 54.8561 93.8449 58.6132 105.048C59.7848 108.541 61.6023 113.663 62.8866 118.514C64.3735 124.129 65.7916 129.76 62.9872 135.193C62.3787 136.37 60.5897 135.445 61.1981 134.269C61.5527 133.582 61.8281 132.909 62.037 132.247C57.9684 132.681 52.2515 125.298 48.6415 120.365C43.8323 113.794 39.4844 108.881 32.9345 103.873C26.5624 99.0014 11.1178 89.9525 4.96473 99.6162C1.4349 105.16 6.32218 111.486 10.6561 114.851C17.8301 120.42 21.436 126.239 27.7606 131.964C35.9749 139.399 39.67 147.341 45.8016 155.705C65.6451 182.772 86.0839 180.903 109.143 195.697C109.935 196.25 110.63 196.693 110.735 196.769C125.888 207.781 139.67 221.922 178.266 267.997C178.62 268.42 178.564 269.051 178.141 269.405C177.717 269.76 177.087 269.704 176.732 269.281C156.515 245.146 135.494 215.389 108.684 197.797C85.0495 182.344 64.6085 184.803 44.1659 156.88C38.1445 148.655 34.4466 140.73 26.4071 133.453C20.1235 127.765 16.5033 121.943 9.41981 116.444C4.1712 112.37 -0.88591 105.055 3.26551 98.5352C10.2698 87.5346 26.6681 96.5455 34.1561 102.271C40.857 107.394 45.3435 112.447 50.2655 119.173C52.5181 122.251 55.5325 126.013 57.9882 128.199C59.7402 129.759 61.2081 130.517 61.911 129.654C62.3234 129.148 62.5118 128.124 62.3866 126.43C62.2193 124.166 61.5344 121.273 60.9745 119.15C59.6947 114.299 57.8393 109.08 56.7001 105.683C55.1242 100.984 53.494 96.7961 51.7899 92.7559C40.6122 94.1967 37.7277 80.5871 42.7235 72.4522C38.3857 62.6109 34.1638 52.7131 28.7743 43.3848C23.846 34.8549 17.3707 25.6543 15.8124 15.7989ZM43.7987 74.876C40.632 81.1018 42.8625 91.2796 50.9696 90.835C48.6585 85.4814 46.1802 80.1989 43.7987 74.876Z" fill="white"/>
</svg>
