<svg width="246" height="59" viewBox="0 0 246 59" fill="none" xmlns="http://www.w3.org/2000/svg">
<g clip-path="url(#clip0_25_347)">
<path d="M13.65 22.0498L18.325 45.0498H20L24.675 22.0498H38.325V58.2748H30.875V28.3998H29.2L22.7 58.2748H15.65L9.15 28.3998H7.475V58.2748H0V22.0498H13.65ZM56.425 29.7248C65.025 29.7248 70.025 34.8748 70.025 44.2748C70.025 53.6748 65.05 58.8248 56.425 58.8248C47.8 58.8248 42.825 53.6748 42.825 44.2748C42.85 34.8498 47.825 29.7248 56.425 29.7248ZM56.425 53.0248C60.3 53.0248 62.15 50.9248 62.15 46.2998V42.1998C62.15 37.5748 60.325 35.4748 56.425 35.4748C52.525 35.4748 50.7 37.5748 50.7 42.1998V46.2998C50.725 50.9248 52.55 53.0248 56.425 53.0248ZM73.075 52.8748L87.3 35.6498H73.275V30.2498H96.175V35.6498L81.95 52.8748H96.375V58.2748H73.075V52.8748ZM100.275 30.2498H110.775V58.2748H103.325V35.6498H100.275V30.2498ZM103.325 22.0498H110.775V27.4498H103.325V22.0498ZM115.7 22.0498H126.2V58.2748H118.75V27.4498H115.7V22.0498ZM131.15 22.0498H141.65V58.2748H134.2V27.4498H131.15V22.0498ZM157.65 29.7248C161.8 29.7248 164.525 31.7748 165.325 35.3498H167V30.2498H175.875V35.6498H172.825V52.8748H175.875V58.2748H171.625C168.625 58.2748 167 56.6498 167 53.6498V53.1748H165.325C164.525 56.7498 161.8 58.7998 157.65 58.7998C151.1 58.7998 146.475 53.2248 146.475 44.2498C146.475 35.2748 151.1 29.7248 157.65 29.7248ZM159.85 53.0248C163.625 53.0248 165.35 50.9248 165.35 46.2998V42.1998C165.35 37.5748 163.625 35.4748 159.85 35.4748C156.075 35.4748 154.35 37.5748 154.35 42.1998V46.2998C154.35 50.9248 156.075 53.0248 159.85 53.0248Z" fill="white"/>
<path d="M203.599 58.275H196.149V0H203.599V58.275ZM209.674 29.725H239.174V28.05L219.949 21.075V15.175L239.174 8.2V6.5H216.399V0H245.899V11.875L230.249 17.275V18.95L245.899 24.35V36.225H209.674V29.725ZM209.674 6.5H216.399V13.225H209.674V6.5Z" fill="white"/>
</g>
<defs>
<clipPath id="clip0_25_347">
<rect width="245.9" height="58.8" fill="white"/>
</clipPath>
</defs>
</svg>
