<svg xmlns="http://www.w3.org/2000/svg" width="402" height="141" fill="none" viewBox="0 0 402 141"><path fill="currentColor" d="M116.706 53.288h20.805l16.517 62.962h-12.045l-13.779-53.29h-2.738l-13.778 53.29H100.19zm-5.201 40.058h30.204l.547 8.121H111.14zm-3.376-40.058h15.877v8.577h-15.877zm54.472 22.447h-5.567v-8.213h15.239v9.308h2.738q1.551-5.11 4.562-7.483 3.011-2.463 8.03-2.463h5.931v8.851h-10.585q-4.745 0-6.935 2.646t-2.19 8.213v29.656h-11.223zm56.046 41.428q-7.209 0-12.228-2.921-5.019-2.919-7.756-8.577-2.646-5.658-2.646-13.779t2.646-13.778q2.737-5.658 7.756-8.578t12.228-2.92q9.034 0 14.509 4.563 5.565 4.47 6.935 13.048h-11.315v-.912q0-1.826-1.095-3.65-1.005-1.825-3.285-3.012-2.282-1.186-5.749-1.186-5.567 0-8.213 3.194-2.555 3.195-2.555 9.946v6.57q0 6.753 2.555 9.946 2.646 3.194 8.213 3.194 3.467 0 5.749-1.186 2.28-1.278 3.285-3.194 1.095-1.916 1.095-4.015v-1.095h11.406q-1.186 8.852-6.753 13.596-5.566 4.746-14.782 4.746m43.3 0q-7.118 0-11.132-3.651-3.924-3.65-3.924-10.22t4.289-10.31q4.288-3.743 12.775-4.563l12.683-1.278v7.209l-9.398 1.004q-4.654.365-6.753 1.916-2.099 1.552-2.099 4.471v.821q0 2.92 2.19 4.472 2.19 1.551 6.297 1.551 4.836 0 7.3-2.099t2.463-6.296V85.043q0-5.02-2.098-7.3-2.008-2.282-6.479-2.282T261.4 77.47q-2.1 1.916-2.099 4.836v.639h-11.406q1.276-8.213 6.387-12.228 5.11-4.106 13.961-4.106 9.673 0 14.6 4.654 5.019 4.653 5.019 13.596v23.177h5.566v8.213h-8.121q-3.468 0-5.292-1.825-1.734-1.825-1.734-5.293v-1.825h-2.738q-1.46 5.11-4.745 7.483t-8.851 2.373m54.361 0q-5.567 0-9.764-3.012-4.197-3.01-6.479-8.669-2.281-5.748-2.281-13.596 0-7.938 2.19-13.596 2.281-5.658 6.479-8.669 4.197-3.01 9.855-3.011 5.109 0 8.304 2.464 3.285 2.371 4.745 7.209h2.737q-.912-8.213-.912-11.498V61.5h-6.114v-8.212h17.337v54.749h5.567v8.213h-8.122q-3.467 0-5.292-1.825-1.825-1.917-1.825-5.384v-2.281h-2.646q-1.643 5.11-5.11 7.756t-8.669 2.647m4.106-8.852q5.567 0 8.121-3.194 2.647-3.194 2.647-10.037v-6.388q0-6.843-2.647-10.037-2.555-3.195-8.121-3.194t-8.212 3.194q-2.555 3.194-2.555 10.037v6.388q0 6.844 2.555 10.037 2.646 3.194 8.212 3.194m55.429 8.852q-7.208 0-12.318-2.921-5.11-2.919-7.848-8.577-2.646-5.658-2.646-13.779t2.646-13.778q2.737-5.658 7.848-8.578t12.318-2.92q7.027 0 11.954 2.737 4.927 2.646 7.483 7.94 2.646 5.2 2.646 12.774v3.924h-37.595v-7.3h33.58l-7.118 4.563V88.51q0-6.935-2.646-10.129t-8.304-3.193-8.303 3.193q-2.647 3.195-2.647 10.129v6.479q0 6.935 2.647 10.128t8.303 3.194q3.468 0 5.658-1.095t3.194-2.646q1.003-1.55 1.003-3.103v-.638h11.498q-1.643 7.939-7.118 12.136-5.384 4.197-14.235 4.198M3.23 13.352H.57V9.78h13.832q3.685 0 5.7 1.824 2.014 1.824 2.014 5.168 0 2.432-1.14 3.762-1.14 1.292-3.382 1.52v1.14q2.394.228 3.572 1.596 1.215 1.33 1.216 3.952 0 3.496-2.052 5.396Q18.278 36 14.516 36H3.23zm10.944 19.076q1.672 0 2.47-.836.836-.836.836-2.584v-1.292q0-1.748-.836-2.584-.798-.874-2.47-.874H8.018v8.17zm-.076-11.438q1.558 0 2.318-.798.798-.836.798-2.508v-1.102q0-1.635-.76-2.432-.76-.798-2.356-.798h-6.08v7.638zm21.005 15.39q-3.001 0-5.13-1.216t-3.268-3.572q-1.102-2.355-1.102-5.738 0-3.382 1.102-5.738 1.14-2.355 3.268-3.572 2.128-1.216 5.13-1.216 2.925 0 4.978 1.14 2.052 1.102 3.116 3.306 1.102 2.166 1.102 5.32v1.634H28.643v-3.04h13.984l-2.964 1.9v-1.14q0-2.888-1.102-4.218t-3.458-1.33q-2.355 0-3.458 1.33-1.102 1.33-1.102 4.218v2.698q0 2.887 1.102 4.218t3.458 1.33q1.444 0 2.356-.456t1.33-1.102.418-1.292v-.266h4.788q-.684 3.306-2.964 5.054-2.242 1.748-5.928 1.748m13.73-17.252h-2.317v-3.42h6.346v3.876h1.14q.646-2.128 1.9-3.116 1.254-1.026 3.344-1.026h2.47v3.686h-4.408q-1.976 0-2.888 1.102t-.912 3.42V36h-4.674zM65.49 13.2H62.98V9.78h7.182V36h-4.674zm10.435 5.928h-2.508v-3.42h7.182V36h-4.674zM75.62 9.78h5.168v4.028H75.62zm10.657 9.348H83.96v-3.42h6.346v3.838h1.14q.609-2.166 1.938-3.192 1.368-1.026 3.534-1.026 3.078 0 4.674 1.862t1.596 5.434v9.956h2.356V36h-7.03V23.536q0-2.355-.912-3.42-.912-1.102-2.85-1.102-1.976 0-2.888 1.102-.912 1.065-.912 3.42V36h-4.674zm41.947 17.252q-3.686 0-6.27-1.482-2.546-1.52-3.914-4.522-1.33-3.04-1.33-7.486t1.33-7.448q1.368-3.04 3.914-4.522 2.584-1.52 6.27-1.52 3.687 0 6.232 1.52 2.585 1.482 3.914 4.484t1.33 7.486-1.33 7.486-3.914 4.522q-2.545 1.482-6.232 1.482m0-3.838q3.306 0 4.826-1.824 1.558-1.824 1.558-5.7v-4.256q0-3.876-1.558-5.7-1.52-1.824-4.826-1.824t-4.864 1.824-1.558 5.7v4.256q0 3.876 1.558 5.7t4.864 1.824m17.382-19.76q0-1.444.722-2.204.76-.798 2.204-.798h6.232v3.42h-4.522V36h-4.636zm-2.85 19.798h11.438V36h-11.438zm-.266-16.872h12.274v3.42H142.49zm17.404-2.926q0-1.482.76-2.242t2.204-.76h6.232v3.42h-4.522V36h-4.674zm-2.812 19.798h11.438V36h-11.438zm-.266-16.872h12.274v3.42h-12.274zm16.226 3.42h-2.508v-3.42h7.182V36h-4.674zm-.266-9.348h5.13v4.028h-5.13zm-1.178 5.928v3.42h-4.104v-3.42zm-19.646 0h7.106v3.42h-7.106zM191.22 36.38q-3.001 0-5.092-1.216t-3.23-3.572q-1.102-2.355-1.102-5.738 0-3.382 1.102-5.738 1.14-2.355 3.23-3.572 2.09-1.216 5.092-1.216 3.762 0 6.042 1.9 2.319 1.862 2.888 5.434h-4.712v-.38q0-.76-.456-1.52-.417-.76-1.368-1.254-.95-.494-2.394-.494-2.317 0-3.42 1.33-1.064 1.33-1.064 4.142v2.736q0 2.812 1.064 4.142 1.103 1.33 3.42 1.33 1.444 0 2.394-.494.951-.532 1.368-1.33.456-.799.456-1.672v-.456h4.75q-.493 3.686-2.812 5.662-2.317 1.976-6.156 1.976m21.414 0q-3.002 0-5.13-1.216t-3.268-3.572q-1.102-2.355-1.102-5.738 0-3.382 1.102-5.738 1.14-2.355 3.268-3.572 2.128-1.216 5.13-1.216 2.926 0 4.978 1.14 2.052 1.102 3.116 3.306 1.102 2.166 1.102 5.32v1.634h-15.656v-3.04h13.984l-2.964 1.9v-1.14q0-2.888-1.102-4.218-1.101-1.33-3.458-1.33-2.355 0-3.458 1.33-1.101 1.33-1.102 4.218v2.698q0 2.887 1.102 4.218t3.458 1.33q1.444 0 2.356-.456t1.33-1.102.418-1.292v-.266h4.788q-.684 3.306-2.964 5.054-2.241 1.748-5.928 1.748M31.636 120H15.818v-7.875h15.818zM71.182 120H55.364v-7.875h15.818zM15.818 112.125H7.91v-7.875h7.91zM55.364 112.125H31.636v-7.875h23.728zM79.09 112.125h-7.908v-7.875h7.909zM7.91 104.25H0v-31.5h7.91zM87 104.25h-7.91v-31.5H87zM31.636 80.625h7.91V88.5h-7.91v7.875h-7.909V88.5h-7.909v-7.875h7.91V72.75h7.908zM63.273 96.375h-7.91V88.5h7.91zM55.364 88.5h-7.91v-7.875h7.91zM71.182 88.5h-7.91v-7.875h7.91zM63.273 80.625h-7.91V72.75h7.91zM15.818 72.75H7.91v-7.875h7.91zM79.09 72.75h-7.908v-7.875h7.909zM71.182 64.875H15.818V57h55.364z"/></svg>