<svg width="3052" height="1028" viewBox="0 0 3052 1028" fill="none" xmlns="http://www.w3.org/2000/svg">
<path d="M1507 0C1548.73 0 1588.41 8.75456 1624.32 24.5254C1662.46 40.1974 1706.99 66.4815 1737.35 109.637C1800.68 199.666 1894.01 189.667 1992.35 168C2090.68 146.333 2200.68 151.333 2285.68 238C2362.95 316.794 2387.34 423 2532.34 408C2663.5 394.431 2769.42 401.333 2855.72 515.5C2861.22 522.775 2866.87 529.511 2872.61 535.748C2916.48 584.988 2980.37 616 3051.5 616C3051.67 616 3051.83 615.997 3052 615.997V1028H0V613C0 613 90.6324 604.996 158.282 515.5C244.58 401.333 350.496 394.431 481.661 408C626.659 423 651.046 316.794 728.324 238C813.323 151.333 923.321 146.333 1021.65 168C1119.99 189.667 1213.32 199.666 1276.65 109.637C1307.01 66.4818 1351.54 40.1974 1389.68 24.5254C1425.59 8.75433 1465.27 0 1507 0Z" fill="#D9D9D9"/>
</svg>
